<?xml version="1.0" encoding="iso-8859-1"?>
<!-- Generator: Adobe Illustrator 19.1.0, SVG Export Plug-In . SVG Version: 6.00 Build 0)  -->
<svg version="1.1" id="Capa_1" xmlns="http://www.w3.org/2000/svg" xmlns:xlink="http://www.w3.org/1999/xlink" x="0px" y="0px"
	 viewBox="0 0 511.653 511.653" style="enable-background:new 0 0 511.653 511.653;" xml:space="preserve">
<g>
	<g>
		<path d="M483.993,0L27.66,0.028l-6.914,6.914v497.797l6.914,6.914h371.925l4.895-2.027l84.401-84.442l2.026-4.888V6.914L483.993,0
			z M406.804,487.744l1.023-59.192l59.185-1.037L406.804,487.744z M477.079,413.507l-76.173,1.341l-6.797,6.79l-1.314,76.187H34.574
			V124.454h442.505V413.507z M477.079,110.626H34.574v-96.77l442.505-0.028V110.626z"/>
		<path d="M159.036,89.331c12.86,0,23.708-8.822,26.778-20.742h140.032c3.069,11.92,13.918,20.742,26.778,20.742
			c15.26,0,27.664-12.404,27.664-27.657s-12.404-27.657-27.657-27.657c-12.86,0-23.708,8.822-26.778,20.742H185.814
			c-3.069-11.92-13.918-20.742-26.778-20.742c-15.253,0-27.657,12.404-27.657,27.657S143.783,89.331,159.036,89.331z
			 M352.624,47.846c7.626,0,13.828,6.202,13.828,13.828s-6.202,13.828-13.828,13.828s-13.828-6.202-13.828-13.828
			C338.796,54.048,344.998,47.846,352.624,47.846z M159.029,47.846c7.626,0,13.828,6.202,13.828,13.828s-6.202,13.828-13.828,13.828
			c-7.626,0-13.828-6.202-13.828-13.828C145.201,54.048,151.403,47.846,159.029,47.846z"/>
		<polygon points="185.689,452.613 255.979,184.614 326.551,452.613 348.096,452.613 426.128,170.98 412.805,167.287 
			337.579,438.785 337.22,438.785 266.931,170.786 245.31,170.786 175.021,438.785 172.974,438.785 100.023,167.336 86.672,170.931 
			162.375,452.613 		"/>
	</g>
</g>
<g>
</g>
<g>
</g>
<g>
</g>
<g>
</g>
<g>
</g>
<g>
</g>
<g>
</g>
<g>
</g>
<g>
</g>
<g>
</g>
<g>
</g>
<g>
</g>
<g>
</g>
<g>
</g>
<g>
</g>
</svg>
